<?xml version="1.0" encoding="UTF-8"?>
<svg xmlns="http://www.w3.org/2000/svg" xmlns:xlink="http://www.w3.org/1999/xlink" viewBox="0 0 50 50" width="50px" height="50px">
<g id="surface307732">
<path style=" stroke:none;fill-rule:nonzero;fill:rgb(100%,100%,100%);fill-opacity:1;" d="M 37 4 L 13 4 C 8.039062 4 4 8.035156 4 13 L 4 37 C 4 41.964844 8.039062 46 13 46 L 37 46 C 41.960938 46 46 41.964844 46 37 L 46 13 C 46 8.035156 41.960938 4 37 4 Z M 35 27 L 35 31.019531 L 34.996094 31.019531 C 34.984375 33.769531 32.75 36 30 36 L 29.5 36 C 28.511719 36 27.566406 35.578125 26.902344 34.847656 C 26.242188 34.117188 25.917969 33.128906 26.015625 32.144531 C 26.195312 30.378906 27.785156 29 29.644531 29 L 31 29 C 32.101562 29 33 28.101562 33 27 L 33 17.203125 L 21 19.453125 L 21 34 C 21 36.757812 18.757812 39 16 39 L 15.5 39 C 14.511719 39 13.566406 38.578125 12.902344 37.847656 C 12.242188 37.117188 11.917969 36.128906 12.015625 35.144531 C 12.195312 33.378906 13.785156 32 15.644531 32 L 17 32 C 18.101562 32 19 31.101562 19 30 L 19 15.351562 C 19 14.390625 19.6875 13.5625 20.632812 13.386719 L 33.222656 11.027344 C 33.664062 10.945312 34.113281 11.058594 34.457031 11.347656 C 34.804688 11.632812 35 12.054688 35 12.5 Z M 35 27 "/>
</g>
</svg>
